Coordinates
version=1
nRows=18
nColumns=63
inDegrees=yes

Units are S.I. units (second, meters, Newtons, ...)
If the header above contains a line with 'inDegrees', this indicates whether rotational values are in degrees (yes) or radians (no).

endheader
time	pelvis_tilt	pelvis_list	pelvis_rotation	pelvis_tx	pelvis_ty	pelvis_tz	hip_flexion_r	hip_adduction_r	hip_rotation_r	knee_angle_r	knee_angle_r_beta	ankle_angle_r	subtalar_angle_r	mtp_angle_r	hip_flexion_l	hip_adduction_l	hip_rotation_l	knee_angle_l	knee_angle_l_beta	ankle_angle_l	subtalar_angle_l	mtp_angle_l	L5_S1_Flex_Ext	L5_S1_Lat_Bending	L5_S1_axial_rotation	L4_L5_Flex_Ext	L4_L5_Lat_Bending	L4_L5_axial_rotation	L3_L4_Flex_Ext	L3_L4_Lat_Bending	L3_L4_axial_rotation	L2_L3_Flex_Ext	L2_L3_Lat_Bending	L2_L3_axial_rotation	L1_L2_Flex_Ext	L1_L2_Lat_Bending	L1_L2_axial_rotation	L1_T12_Flex_Ext	L1_T12_Lat_Bending	L1_T12_axial_rotation	Abs_r3	Abs_r2	Abs_r1	Abs_t1	Abs_t2	neck_flexion	neck_bending	neck_rotation	arm_flex_r	arm_add_r	arm_rot_r	elbow_flex_r	pro_sup_r	wrist_flex_r	wrist_dev_r	arm_flex_l	arm_add_l	arm_rot_l	elbow_flex_l	pro_sup_l	wrist_flex_l	wrist_dev_l
0.000000	-0.258501	-2.978571	92.442889	0.203756	0.945590	0.535218	2.798950	0.129224	-23.428224	4.146032	0.072362	4.106245	9.310465	0.000000	2.822573	-1.510615	-5.097049	2.914407	0.050866	-0.325598	1.726762	0.000000	0.266768	0.201264	-0.137508	0.495414	0.267681	-0.146102	0.438273	0.489353	-0.146102	0.304889	0.489353	-0.120319	0.247721	0.410417	-0.111725	0.152431	0.311758	-0.103131	1.905495	2.276736	-0.764776	0.000000	0.000000	27.061163	3.021813	0.312585	6.424873	-15.775721	55.523112	62.985439	23.040172	-13.032392	21.462949	21.570559	-11.173864	77.686326	62.207907	30.795505	-20.614485	14.139203
0.016949	-0.157395	-2.882254	92.415890	0.204085	0.945949	0.535867	2.732213	0.303871	-26.128288	4.047966	0.070650	3.680037	11.086511	0.000000	2.780192	-1.637166	-4.740942	2.905733	0.050715	-0.275319	1.561255	0.000000	0.257648	0.204126	0.006027	0.478478	0.271488	0.006404	0.423290	0.496312	0.006404	0.294466	0.496312	0.005274	0.239252	0.416254	0.004897	0.147220	0.316191	0.004520	1.840355	2.309116	0.033521	0.000000	0.000000	26.838289	2.355828	-1.167643	5.802673	-15.569129	52.396501	63.298281	24.545838	-12.884270	24.584382	22.818921	-10.901926	80.201073	62.021492	29.611624	-19.693106	14.628767
0.033898	-0.063565	-2.801429	92.427596	0.204295	0.946249	0.536309	2.657838	0.461748	-28.234663	3.951981	0.068975	3.223873	12.379414	0.000000	2.742408	-1.754357	-4.491015	2.901619	0.050643	-0.233760	1.542275	0.000000	0.250172	0.207782	0.114977	0.464595	0.276351	0.122163	0.411008	0.505202	0.122163	0.285922	0.505202	0.100605	0.232310	0.423710	0.093419	0.142948	0.321855	0.086233	1.786956	2.350477	0.639469	0.000000	0.000000	26.675428	1.805413	-2.384689	5.298629	-15.401967	49.920850	63.499228	26.278098	-12.587136	26.951297	23.809206	-10.665221	82.291334	61.818179	28.635632	-18.887963	14.955138
0.050847	0.022865	-2.734514	92.472902	0.204398	0.946497	0.536568	2.577028	0.603202	-29.804777	3.858913	0.067351	2.746058	13.240629	0.000000	2.708798	-1.862199	-4.337950	2.901438	0.050640	-0.195838	1.655389	0.000000	0.244176	0.212081	0.192859	0.453459	0.282068	0.204913	0.401157	0.515654	0.204913	0.279069	0.515654	0.168752	0.226742	0.432476	0.156698	0.139522	0.328514	0.144644	1.744125	2.399105	1.072625	0.000000	0.000000	26.565871	1.360651	-3.361240	4.902218	-15.271151	48.036529	63.601167	28.185736	-12.165948	28.638373	24.566313	-10.461544	83.993765	61.602955	27.847144	-18.193036	15.133034
0.067797	0.101772	-2.679929	92.546704	0.204408	0.946697	0.536667	2.490987	0.728583	-30.896055	3.769594	0.065792	2.254897	13.721614	0.000000	2.678934	-1.960706	-4.272431	2.904562	0.050694	-0.156467	1.886164	0.000000	0.239494	0.216871	0.243190	0.444765	0.288439	0.258389	0.393466	0.527301	0.258389	0.273718	0.527301	0.212791	0.222395	0.442244	0.197592	0.136847	0.335934	0.182393	1.710685	2.453293	1.352550	0.000000	0.000000	26.502910	1.011622	-4.119980	4.602917	-15.173599	46.683907	63.616984	30.217533	-11.645663	29.720289	25.115141	-10.288688	85.345026	61.380805	27.225773	-17.602307	15.177172
0.084746	0.173036	-2.636093	92.643896	0.204339	0.946856	0.536629	2.400920	0.838238	-31.565925	3.684860	0.064313	1.758695	13.873823	0.000000	2.652394	-2.049891	-4.285141	2.910363	0.050795	-0.110565	2.220167	0.000000	0.235963	0.222002	0.269486	0.438208	0.295262	0.286329	0.387664	0.539775	0.286329	0.269683	0.539775	0.235800	0.219116	0.452706	0.218957	0.134830	0.343881	0.202115	1.685463	2.511328	1.498801	0.000000	0.000000	26.479836	0.748407	-4.683595	4.390204	-15.106229	45.803353	63.559567	32.322272	-11.051238	30.271722	25.480589	-10.144448	86.381775	61.156713	26.751135	-17.109756	15.102271
0.101695	0.236534	-2.601425	92.759373	0.204203	0.946979	0.536478	2.308029	0.932515	-31.871813	3.605546	0.062929	1.265757	13.748714	0.000000	2.628751	-2.129767	-4.366764	2.918213	0.050932	-0.053045	2.642965	0.000000	0.233418	0.227321	0.275264	0.433481	0.302337	0.292468	0.383483	0.552708	0.292468	0.266774	0.552708	0.240856	0.216752	0.463553	0.223652	0.133375	0.352120	0.206448	1.667284	2.571502	1.530936	0.000000	0.000000	26.489943	0.561087	-5.074770	4.253557	-15.065957	45.335237	63.441802	34.448736	-10.407630	30.367353	25.687556	-10.026618	87.140670	60.935666	26.402843	-16.709363	14.923048
0.118644	0.292142	-2.574344	92.888030	0.204014	0.947071	0.536238	2.213521	1.011762	-31.871146	3.532484	0.061653	0.784387	13.397743	0.000000	2.607581	-2.200348	-4.507984	2.927486	0.051094	0.021175	3.140124	0.000000	0.231695	0.232678	0.264041	0.430280	0.309462	0.280543	0.380651	0.565734	0.280543	0.264804	0.565734	0.231035	0.215152	0.474477	0.214533	0.132390	0.360418	0.198030	1.654973	2.632102	1.468514	0.000000	0.000000	26.526520	0.439745	-5.316193	4.182452	-15.049701	45.219928	63.276575	36.545706	-9.739797	30.081858	25.760940	-9.932991	87.658370	60.722646	26.160511	-16.395110	14.654221
0.135593	0.339741	-2.553268	93.024762	0.203786	0.947138	0.535930	2.118597	1.076326	-31.621351	3.466510	0.060502	0.322891	12.872366	0.000000	2.588458	-2.261645	-4.699482	2.937552	0.051270	0.117180	3.697212	0.000000	0.230628	0.237922	0.239332	0.428300	0.316436	0.254290	0.378899	0.578483	0.254290	0.263585	0.578483	0.209416	0.214161	0.485170	0.194457	0.131781	0.368541	0.179499	1.647355	2.691419	1.331094	0.000000	0.000000	26.582861	0.374460	-5.430547	4.166368	-15.054378	45.397795	63.076773	38.561964	-9.072695	29.489917	25.725640	-9.861362	87.971533	60.522641	26.003753	-16.160977	14.310508
0.152542	0.379206	-2.536618	93.164464	0.203533	0.947186	0.535580	2.024463	1.126557	-31.179854	3.408458	0.059489	-0.110426	12.224039	0.000000	2.570959	-2.313673	-4.931944	2.947785	0.051449	0.240054	4.299796	0.000000	0.230054	0.242901	0.204656	0.427234	0.323058	0.217447	0.377956	0.590589	0.217447	0.262929	0.590589	0.179074	0.213628	0.495323	0.166283	0.131453	0.376253	0.153492	1.643255	2.747743	1.138234	0.000000	0.000000	26.652256	0.355314	-5.440518	4.194782	-15.076905	45.809208	62.855284	40.446294	-8.431281	28.666208	25.606555	-9.809526	88.116818	60.340635	25.912184	-16.000945	13.906627
0.169492	0.410417	-2.522811	93.302031	0.203266	0.947220	0.535210	1.932323	1.162800	-30.604082	3.359162	0.058628	-0.507261	11.504218	0.000000	2.554657	-2.356445	-5.196053	2.957557	0.051619	0.394882	4.933441	0.000000	0.229808	0.247464	0.163528	0.426777	0.329127	0.173748	0.377552	0.601684	0.173748	0.262648	0.601684	0.143087	0.213400	0.504629	0.132866	0.131313	0.383322	0.122646	1.641499	2.799363	0.909492	0.000000	0.000000	26.727999	0.372389	-5.368793	4.257172	-15.114201	46.394535	62.624993	42.147477	-7.840513	27.685409	25.428585	-9.775276	88.130882	60.181613	25.865417	-15.908995	13.457295
0.186441	0.435897	-2.517498	93.409458	0.203027	0.947251	0.534880	1.855497	1.189545	-29.967733	3.336895	0.058240	-0.852756	10.773656	0.000000	2.549774	-2.394254	-5.526369	2.961465	0.051687	0.789447	5.694692	0.000000	0.229838	0.251633	0.119769	0.426832	0.334672	0.127255	0.377601	0.611821	0.127255	0.262682	0.611821	0.104798	0.213428	0.513131	0.097312	0.131330	0.389780	0.089827	1.641711	2.846526	0.666120	0.000000	0.000000	26.803456	0.411363	-5.256121	4.388902	-15.164630	47.205385	62.396935	43.088950	-7.411206	26.563186	25.238436	-9.755430	88.055928	60.086008	25.833591	-15.908144	13.170147
0.203390	0.445283	-2.501510	93.496986	0.202827	0.947301	0.534640	1.780814	1.188227	-29.473215	3.327849	0.058082	-1.118793	10.257845	0.000000	2.535719	-2.413194	-5.785493	2.965414	0.051756	1.110984	6.276830	0.000000	0.228793	0.254048	0.088949	0.424892	0.337884	0.094508	0.375884	0.617693	0.094508	0.261488	0.617693	0.077830	0.212457	0.518056	0.072271	0.130732	0.393521	0.066712	1.634247	2.873847	0.494707	0.000000	0.000000	26.852619	0.457205	-5.133319	4.496247	-15.231846	47.908986	62.208178	43.909293	-7.106506	25.678147	25.151937	-9.746341	88.161870	60.021870	25.541658	-16.001319	12.737829
0.220339	0.440091	-2.476304	93.570762	0.202659	0.947364	0.534496	1.708382	1.165662	-29.112526	3.327060	0.058068	-1.301880	9.907171	0.000000	2.517254	-2.415280	-6.022327	2.969863	0.051834	1.390871	6.760399	0.000000	0.227050	0.254712	0.068004	0.421655	0.338767	0.072254	0.373021	0.619307	0.072254	0.259496	0.619307	0.059504	0.210839	0.519409	0.055253	0.129736	0.394549	0.051003	1.621797	2.881353	0.378218	0.000000	0.000000	26.867074	0.505658	-5.016034	4.597793	-15.316770	48.535687	62.090479	44.492799	-7.001077	25.035677	25.141723	-9.745404	88.346453	59.995695	25.134105	-16.117624	12.283394
0.237288	0.423409	-2.442149	93.622811	0.202545	0.947438	0.534425	1.635754	1.133614	-28.784737	3.327174	0.058070	-1.401391	9.606275	0.000000	2.491934	-2.408192	-6.296847	2.973247	0.051893	1.668059	7.261707	0.000000	0.224672	0.253837	0.058619	0.417239	0.337603	0.062283	0.369114	0.617180	0.062283	0.256778	0.617180	0.051292	0.208631	0.517625	0.047628	0.128378	0.393194	0.043964	1.604811	2.871456	0.326021	0.000000	0.000000	26.851376	0.547026	-4.924834	4.669731	-15.416749	49.046276	62.055531	44.819223	-7.033232	24.564767	25.189196	-9.756052	88.588963	60.034986	24.577014	-16.333488	11.711797
0.254237	0.398173	-2.402617	93.639721	0.202495	0.947521	0.534408	1.563828	1.098223	-28.462259	3.321223	0.057966	-1.423118	9.355010	0.000000	2.461199	-2.394719	-6.649338	2.974936	0.051922	1.976887	7.825547	0.000000	0.222149	0.252298	0.055526	0.412553	0.335556	0.058997	0.364969	0.613437	0.058997	0.253894	0.613437	0.048585	0.206288	0.514486	0.045115	0.126936	0.390809	0.041645	1.586788	2.854044	0.308820	0.000000	0.000000	26.807312	0.580730	-4.826757	4.744304	-15.533391	49.500936	62.097357	44.788359	-7.216750	24.263452	25.213536	-9.791621	88.691224	60.136590	24.146288	-16.579100	11.201876
0.271186	0.369322	-2.369585	93.671689	0.202448	0.947592	0.534403	1.499287	1.058031	-28.337672	3.317380	0.057899	-1.353685	9.316337	0.000000	2.439052	-2.375194	-6.949882	2.969729	0.051832	2.337415	8.375950	0.000000	0.221148	0.250114	0.051788	0.410694	0.332651	0.055025	0.363324	0.608126	0.055025	0.252750	0.608126	0.045314	0.205358	0.510032	0.042078	0.126364	0.387426	0.038841	1.579639	2.829334	0.288029	0.000000	0.000000	26.763574	0.594203	-4.757388	4.715310	-15.615861	49.679053	62.223969	44.462800	-7.508215	24.112970	25.153560	-9.837903	88.530138	60.275097	24.110652	-16.749373	10.779949
0.288136	0.342562	-2.331381	93.688441	0.202440	0.947662	0.534422	1.435170	1.023126	-28.286755	3.317978	0.057910	-1.266129	9.355906	0.000000	2.414491	-2.361714	-7.314385	2.969029	0.051819	2.753338	9.047013	0.000000	0.219929	0.248070	0.050334	0.408430	0.329933	0.053480	0.361322	0.603157	0.053480	0.251357	0.603157	0.044042	0.204226	0.505864	0.040897	0.125668	0.384260	0.037751	1.570932	2.806215	0.279944	0.000000	0.000000	26.705318	0.580748	-4.731628	4.630597	-15.666647	49.675125	62.418248	43.736057	-8.025904	24.123138	25.048505	-9.897610	88.228372	60.457029	24.166482	-17.011129	10.432092
